<mxfile modified="2023-07-23T12:13:38.625Z" host="Electron" agent="Mozilla/5.0 (X11; Linux x86_64) AppleWebKit/537.36 (KHTML, like Gecko) draw.io/21.6.5 Chrome/114.0.5735.243 Electron/25.3.1 Safari/537.36" etag="a5qT1XS7qn9wOAdVjs-Q" version="21.6.5" type="device">
  <diagram id="WI9T0HZ2pTsCkuznbFz-" name="Page-1">
    <mxGraphModel dx="2672" dy="1124" grid="1" gridSize="10" guides="1" tooltips="1" connect="1" arrows="1" fold="1" page="1" pageScale="1" pageWidth="827" pageHeight="1169" math="0" shadow="0">
      <root>
        <mxCell id="0" />
        <mxCell id="1" parent="0" />
        <mxCell id="wAlME1ZznGccQzY6cLMW-2" value="Resource Group" style="image;sketch=0;aspect=fixed;html=1;points=[];align=center;fontSize=12;image=img/lib/mscae/ResourceGroup.svg;" parent="1" vertex="1">
          <mxGeometry x="211.5" y="95" width="50" height="40" as="geometry" />
        </mxCell>
        <mxCell id="wAlME1ZznGccQzY6cLMW-3" value="azure container registry" style="image;aspect=fixed;html=1;points=[];align=center;fontSize=12;image=img/lib/azure2/containers/Container_Registries.svg;" parent="1" vertex="1">
          <mxGeometry x="-500" y="224.25" width="68" height="61" as="geometry" />
        </mxCell>
        <mxCell id="wAlME1ZznGccQzY6cLMW-4" value="Virtual Network" style="image;sketch=0;aspect=fixed;html=1;points=[];align=center;fontSize=12;image=img/lib/mscae/Virtual_Network.svg;" parent="1" vertex="1">
          <mxGeometry x="406" y="240.75" width="50" height="28.000000000000004" as="geometry" />
        </mxCell>
        <mxCell id="wAlME1ZznGccQzY6cLMW-6" value="ip publica" style="image;sketch=0;aspect=fixed;html=1;points=[];align=center;fontSize=12;image=img/lib/mscae/App_Service_IPAddress.svg;" parent="1" vertex="1">
          <mxGeometry x="286" y="233.75" width="50" height="42" as="geometry" />
        </mxCell>
        <mxCell id="wAlME1ZznGccQzY6cLMW-7" value="security group" style="image;sketch=0;aspect=fixed;html=1;points=[];align=center;fontSize=12;image=img/lib/mscae/Network_Security_Groups_Classic.svg;" parent="1" vertex="1">
          <mxGeometry x="162" y="229.75" width="37" height="50" as="geometry" />
        </mxCell>
        <mxCell id="wAlME1ZznGccQzY6cLMW-8" value="virtual machine vm" style="verticalLabelPosition=bottom;html=1;verticalAlign=top;align=center;strokeColor=none;fillColor=#00BEF2;shape=mxgraph.azure.virtual_machine;" parent="1" vertex="1">
          <mxGeometry x="-115" y="231.25" width="50" height="40" as="geometry" />
        </mxCell>
        <mxCell id="wAlME1ZznGccQzY6cLMW-9" value="disck" style="image;sketch=0;aspect=fixed;html=1;points=[];align=center;fontSize=12;image=img/lib/mscae/Discs.svg;" parent="1" vertex="1">
          <mxGeometry x="24.5" y="237.75" width="50" height="42" as="geometry" />
        </mxCell>
        <mxCell id="wAlME1ZznGccQzY6cLMW-11" value="akr" style="image;sketch=0;aspect=fixed;html=1;points=[];align=center;fontSize=12;image=img/lib/mscae/Kubernetes_Services.svg;" parent="1" vertex="1">
          <mxGeometry x="576.5" y="234.25" width="50" height="37" as="geometry" />
        </mxCell>
        <mxCell id="T_iA5VS61h9kqcx7VfOq-1" value="" style="endArrow=none;html=1;rounded=0;entryX=0.961;entryY=1.022;entryDx=0;entryDy=0;entryPerimeter=0;exitX=0.42;exitY=0;exitDx=0;exitDy=0;exitPerimeter=0;" edge="1" parent="1" source="wAlME1ZznGccQzY6cLMW-12" target="wAlME1ZznGccQzY6cLMW-11">
          <mxGeometry width="50" height="50" relative="1" as="geometry">
            <mxPoint x="680" y="580" as="sourcePoint" />
            <mxPoint x="730" y="530" as="targetPoint" />
          </mxGeometry>
        </mxCell>
        <mxCell id="T_iA5VS61h9kqcx7VfOq-2" value="" style="endArrow=none;html=1;rounded=0;entryX=0.788;entryY=1.006;entryDx=0;entryDy=0;entryPerimeter=0;exitX=0.554;exitY=0;exitDx=0;exitDy=0;exitPerimeter=0;" edge="1" parent="1" source="wAlME1ZznGccQzY6cLMW-13" target="wAlME1ZznGccQzY6cLMW-11">
          <mxGeometry width="50" height="50" relative="1" as="geometry">
            <mxPoint x="680" y="580" as="sourcePoint" />
            <mxPoint x="730" y="530" as="targetPoint" />
          </mxGeometry>
        </mxCell>
        <mxCell id="T_iA5VS61h9kqcx7VfOq-8" value="" style="endArrow=none;html=1;rounded=0;entryX=0.665;entryY=1.006;entryDx=0;entryDy=0;entryPerimeter=0;exitX=0.5;exitY=-0.139;exitDx=0;exitDy=0;exitPerimeter=0;" edge="1" parent="1" source="T_iA5VS61h9kqcx7VfOq-4" target="wAlME1ZznGccQzY6cLMW-11">
          <mxGeometry width="50" height="50" relative="1" as="geometry">
            <mxPoint x="490" y="350" as="sourcePoint" />
            <mxPoint x="540" y="300" as="targetPoint" />
          </mxGeometry>
        </mxCell>
        <mxCell id="T_iA5VS61h9kqcx7VfOq-9" value="" style="endArrow=none;html=1;rounded=0;entryX=0.555;entryY=1.022;entryDx=0;entryDy=0;entryPerimeter=0;exitX=0.53;exitY=-0.059;exitDx=0;exitDy=0;exitPerimeter=0;" edge="1" parent="1" source="T_iA5VS61h9kqcx7VfOq-5" target="wAlME1ZznGccQzY6cLMW-11">
          <mxGeometry width="50" height="50" relative="1" as="geometry">
            <mxPoint x="490" y="350" as="sourcePoint" />
            <mxPoint x="540" y="300" as="targetPoint" />
          </mxGeometry>
        </mxCell>
        <mxCell id="T_iA5VS61h9kqcx7VfOq-10" value="" style="endArrow=none;html=1;rounded=0;entryX=0.43;entryY=1.011;entryDx=0;entryDy=0;entryPerimeter=0;exitX=0.438;exitY=-0.043;exitDx=0;exitDy=0;exitPerimeter=0;" edge="1" parent="1" source="T_iA5VS61h9kqcx7VfOq-6" target="wAlME1ZznGccQzY6cLMW-11">
          <mxGeometry width="50" height="50" relative="1" as="geometry">
            <mxPoint x="610" y="420" as="sourcePoint" />
            <mxPoint x="660" y="370" as="targetPoint" />
          </mxGeometry>
        </mxCell>
        <mxCell id="T_iA5VS61h9kqcx7VfOq-14" value="" style="endArrow=none;html=1;rounded=0;entryX=0.252;entryY=1.035;entryDx=0;entryDy=0;entryPerimeter=0;exitX=0.521;exitY=-0.02;exitDx=0;exitDy=0;exitPerimeter=0;" edge="1" parent="1" source="T_iA5VS61h9kqcx7VfOq-7" target="wAlME1ZznGccQzY6cLMW-11">
          <mxGeometry width="50" height="50" relative="1" as="geometry">
            <mxPoint x="610" y="420" as="sourcePoint" />
            <mxPoint x="660" y="370" as="targetPoint" />
          </mxGeometry>
        </mxCell>
        <mxCell id="T_iA5VS61h9kqcx7VfOq-15" value="" style="endArrow=none;html=1;rounded=0;exitX=0.445;exitY=-0.061;exitDx=0;exitDy=0;exitPerimeter=0;" edge="1" parent="1" source="wAlME1ZznGccQzY6cLMW-11" target="wAlME1ZznGccQzY6cLMW-2">
          <mxGeometry width="50" height="50" relative="1" as="geometry">
            <mxPoint x="330" y="290" as="sourcePoint" />
            <mxPoint x="380" y="240" as="targetPoint" />
          </mxGeometry>
        </mxCell>
        <mxCell id="T_iA5VS61h9kqcx7VfOq-16" value="" style="endArrow=none;html=1;rounded=0;" edge="1" parent="1" source="wAlME1ZznGccQzY6cLMW-3" target="wAlME1ZznGccQzY6cLMW-2">
          <mxGeometry width="50" height="50" relative="1" as="geometry">
            <mxPoint x="330" y="290" as="sourcePoint" />
            <mxPoint x="380" y="240" as="targetPoint" />
          </mxGeometry>
        </mxCell>
        <mxCell id="T_iA5VS61h9kqcx7VfOq-17" value="" style="endArrow=none;html=1;rounded=0;" edge="1" parent="1" source="wAlME1ZznGccQzY6cLMW-4" target="wAlME1ZznGccQzY6cLMW-2">
          <mxGeometry width="50" height="50" relative="1" as="geometry">
            <mxPoint x="330" y="290" as="sourcePoint" />
            <mxPoint x="380" y="240" as="targetPoint" />
          </mxGeometry>
        </mxCell>
        <mxCell id="T_iA5VS61h9kqcx7VfOq-18" value="" style="endArrow=none;html=1;rounded=0;" edge="1" parent="1" source="wAlME1ZznGccQzY6cLMW-6" target="wAlME1ZznGccQzY6cLMW-2">
          <mxGeometry width="50" height="50" relative="1" as="geometry">
            <mxPoint x="330" y="290" as="sourcePoint" />
            <mxPoint x="380" y="240" as="targetPoint" />
          </mxGeometry>
        </mxCell>
        <mxCell id="T_iA5VS61h9kqcx7VfOq-19" value="" style="endArrow=none;html=1;rounded=0;" edge="1" parent="1" source="wAlME1ZznGccQzY6cLMW-7" target="wAlME1ZznGccQzY6cLMW-2">
          <mxGeometry width="50" height="50" relative="1" as="geometry">
            <mxPoint x="330" y="290" as="sourcePoint" />
            <mxPoint x="380" y="240" as="targetPoint" />
          </mxGeometry>
        </mxCell>
        <mxCell id="T_iA5VS61h9kqcx7VfOq-20" value="" style="endArrow=none;html=1;rounded=0;" edge="1" parent="1" source="wAlME1ZznGccQzY6cLMW-9" target="wAlME1ZznGccQzY6cLMW-2">
          <mxGeometry width="50" height="50" relative="1" as="geometry">
            <mxPoint x="330" y="290" as="sourcePoint" />
            <mxPoint x="380" y="240" as="targetPoint" />
          </mxGeometry>
        </mxCell>
        <mxCell id="T_iA5VS61h9kqcx7VfOq-21" value="" style="endArrow=none;html=1;rounded=0;exitX=0.99;exitY=0.01;exitDx=0;exitDy=0;exitPerimeter=0;" edge="1" parent="1" source="wAlME1ZznGccQzY6cLMW-8" target="wAlME1ZznGccQzY6cLMW-2">
          <mxGeometry width="50" height="50" relative="1" as="geometry">
            <mxPoint x="260" y="250" as="sourcePoint" />
            <mxPoint x="310" y="200" as="targetPoint" />
          </mxGeometry>
        </mxCell>
        <mxCell id="T_iA5VS61h9kqcx7VfOq-22" value="podman" style="image;sketch=0;aspect=fixed;html=1;points=[];align=center;fontSize=12;image=img/lib/mscae/Docker.svg;" vertex="1" parent="1">
          <mxGeometry x="-115" y="663.5" width="50" height="41" as="geometry" />
        </mxCell>
        <mxCell id="T_iA5VS61h9kqcx7VfOq-24" value="&lt;h3&gt;practica2acr.azurecr.io/webserver&amp;nbsp;&lt;/h3&gt;" style="ellipse;whiteSpace=wrap;html=1;fillColor=#6d8764;strokeColor=#3A5431;fontColor=#ffffff;" vertex="1" parent="1">
          <mxGeometry x="-80.5" y="775" width="270.5" height="105" as="geometry" />
        </mxCell>
        <mxCell id="T_iA5VS61h9kqcx7VfOq-25" value="&lt;h3&gt;practica2acr.azurecr.io/nginx&amp;nbsp;&lt;/h3&gt;" style="ellipse;whiteSpace=wrap;html=1;fillColor=#6d8764;strokeColor=#3A5431;fontColor=#ffffff;" vertex="1" parent="1">
          <mxGeometry x="-345" y="776" width="255" height="104" as="geometry" />
        </mxCell>
        <mxCell id="T_iA5VS61h9kqcx7VfOq-26" value="" style="endArrow=none;html=1;rounded=0;" edge="1" parent="1" source="T_iA5VS61h9kqcx7VfOq-24" target="T_iA5VS61h9kqcx7VfOq-22">
          <mxGeometry width="50" height="50" relative="1" as="geometry">
            <mxPoint x="370" y="691" as="sourcePoint" />
            <mxPoint x="420" y="641" as="targetPoint" />
          </mxGeometry>
        </mxCell>
        <mxCell id="T_iA5VS61h9kqcx7VfOq-27" value="" style="endArrow=none;html=1;rounded=0;" edge="1" parent="1" source="T_iA5VS61h9kqcx7VfOq-25" target="T_iA5VS61h9kqcx7VfOq-22">
          <mxGeometry width="50" height="50" relative="1" as="geometry">
            <mxPoint x="370" y="691" as="sourcePoint" />
            <mxPoint x="420" y="641" as="targetPoint" />
          </mxGeometry>
        </mxCell>
        <mxCell id="T_iA5VS61h9kqcx7VfOq-28" value="" style="endArrow=none;html=1;rounded=0;" edge="1" parent="1" source="T_iA5VS61h9kqcx7VfOq-22" target="wAlME1ZznGccQzY6cLMW-8">
          <mxGeometry width="50" height="50" relative="1" as="geometry">
            <mxPoint x="370" y="410" as="sourcePoint" />
            <mxPoint x="420" y="360" as="targetPoint" />
          </mxGeometry>
        </mxCell>
        <mxCell id="T_iA5VS61h9kqcx7VfOq-29" value="&lt;h3&gt;practica2acr.azurecr.io/webserver&amp;nbsp; casopractico2&lt;/h3&gt;" style="ellipse;whiteSpace=wrap;html=1;fillColor=#d80073;strokeColor=#A50040;fontColor=#ffffff;" vertex="1" parent="1">
          <mxGeometry x="-447.5" y="630" width="245.5" height="80" as="geometry" />
        </mxCell>
        <mxCell id="T_iA5VS61h9kqcx7VfOq-30" value="&lt;h3&gt;practica2acr.azurecr.io/nginx&amp;nbsp; &amp;nbsp; &amp;nbsp; casopractico2&lt;/h3&gt;" style="ellipse;whiteSpace=wrap;html=1;fillColor=#e3c800;strokeColor=#B09500;fontColor=#000000;" vertex="1" parent="1">
          <mxGeometry x="-712" y="631" width="245.5" height="80" as="geometry" />
        </mxCell>
        <mxCell id="T_iA5VS61h9kqcx7VfOq-31" value="" style="endArrow=none;html=1;rounded=0;" edge="1" parent="1" source="T_iA5VS61h9kqcx7VfOq-29" target="wAlME1ZznGccQzY6cLMW-3">
          <mxGeometry width="50" height="50" relative="1" as="geometry">
            <mxPoint x="-160" y="410" as="sourcePoint" />
            <mxPoint x="-110" y="360" as="targetPoint" />
          </mxGeometry>
        </mxCell>
        <mxCell id="T_iA5VS61h9kqcx7VfOq-32" value="" style="endArrow=none;html=1;rounded=0;" edge="1" parent="1" source="T_iA5VS61h9kqcx7VfOq-30" target="wAlME1ZznGccQzY6cLMW-3">
          <mxGeometry width="50" height="50" relative="1" as="geometry">
            <mxPoint x="-160" y="410" as="sourcePoint" />
            <mxPoint x="-110" y="360" as="targetPoint" />
          </mxGeometry>
        </mxCell>
        <mxCell id="T_iA5VS61h9kqcx7VfOq-36" value="" style="swimlane;startSize=0;fillColor=#a20025;strokeColor=#6F0000;fontColor=#ffffff;" vertex="1" parent="1">
          <mxGeometry x="-730" y="612" width="1760" height="328" as="geometry" />
        </mxCell>
        <mxCell id="T_iA5VS61h9kqcx7VfOq-34" value="&lt;h3&gt;service/pv-nginx&lt;/h3&gt;" style="ellipse;whiteSpace=wrap;html=1;fillColor=#d80073;strokeColor=#A50040;fontColor=#ffffff;" vertex="1" parent="T_iA5VS61h9kqcx7VfOq-36">
          <mxGeometry x="1280" y="41.5" width="219.5" height="80" as="geometry" />
        </mxCell>
        <mxCell id="T_iA5VS61h9kqcx7VfOq-42" value="Ansible" style="sketch=0;points=[[0,0,0],[0.25,0,0],[0.5,0,0],[0.75,0,0],[1,0,0],[0,1,0],[0.25,1,0],[0.5,1,0],[0.75,1,0],[1,1,0],[0,0.25,0],[0,0.5,0],[0,0.75,0],[1,0.25,0],[1,0.5,0],[1,0.75,0]];outlineConnect=0;fontColor=#232F3E;gradientColor=#F54749;gradientDirection=north;fillColor=#C7131F;strokeColor=#ffffff;dashed=0;verticalLabelPosition=bottom;verticalAlign=top;align=center;html=1;fontSize=12;fontStyle=0;aspect=fixed;shape=mxgraph.aws4.resourceIcon;resIcon=mxgraph.aws4.amplify;" vertex="1" parent="T_iA5VS61h9kqcx7VfOq-36">
          <mxGeometry x="1670" y="23" width="50" height="50" as="geometry" />
        </mxCell>
        <mxCell id="T_iA5VS61h9kqcx7VfOq-39" value="" style="group" vertex="1" connectable="0" parent="1">
          <mxGeometry x="364.5" y="490" width="599.12" height="76" as="geometry" />
        </mxCell>
        <mxCell id="wAlME1ZznGccQzY6cLMW-12" value="ip publica" style="image;sketch=0;aspect=fixed;html=1;points=[];align=center;fontSize=12;image=img/lib/mscae/App_Service_IPAddress.svg;" parent="T_iA5VS61h9kqcx7VfOq-39" vertex="1">
          <mxGeometry x="551.5" y="22" width="47.62" height="40" as="geometry" />
        </mxCell>
        <mxCell id="wAlME1ZznGccQzY6cLMW-13" value="security group" style="image;sketch=0;aspect=fixed;html=1;points=[];align=center;fontSize=12;image=img/lib/mscae/Network_Security_Groups_Classic.svg;" parent="T_iA5VS61h9kqcx7VfOq-39" vertex="1">
          <mxGeometry x="452" y="22" width="37" height="50" as="geometry" />
        </mxCell>
        <mxCell id="T_iA5VS61h9kqcx7VfOq-4" value="Virtual Network" style="image;sketch=0;aspect=fixed;html=1;points=[];align=center;fontSize=12;image=img/lib/mscae/Virtual_Network.svg;" vertex="1" parent="T_iA5VS61h9kqcx7VfOq-39">
          <mxGeometry x="355.5" y="28" width="50" height="28.000000000000004" as="geometry" />
        </mxCell>
        <mxCell id="T_iA5VS61h9kqcx7VfOq-5" value="agent pool" style="image;aspect=fixed;html=1;points=[];align=center;fontSize=12;image=img/lib/azure2/networking/Route_Tables.svg;" vertex="1" parent="T_iA5VS61h9kqcx7VfOq-39">
          <mxGeometry x="245.5" width="64" height="62" as="geometry" />
        </mxCell>
        <mxCell id="T_iA5VS61h9kqcx7VfOq-6" value="vmss" style="image;aspect=fixed;html=1;points=[];align=center;fontSize=12;image=img/lib/azure2/networking/Spot_VMSS.svg;" vertex="1" parent="T_iA5VS61h9kqcx7VfOq-39">
          <mxGeometry x="125.5" y="8" width="68" height="64" as="geometry" />
        </mxCell>
        <mxCell id="T_iA5VS61h9kqcx7VfOq-7" value="load balancer" style="image;aspect=fixed;html=1;points=[];align=center;fontSize=12;image=img/lib/azure2/networking/Load_Balancers.svg;" vertex="1" parent="T_iA5VS61h9kqcx7VfOq-39">
          <mxGeometry y="4" width="72" height="72" as="geometry" />
        </mxCell>
        <mxCell id="T_iA5VS61h9kqcx7VfOq-40" value="" style="endArrow=none;html=1;rounded=0;" edge="1" parent="1" source="T_iA5VS61h9kqcx7VfOq-34">
          <mxGeometry width="50" height="50" relative="1" as="geometry">
            <mxPoint x="380" y="620" as="sourcePoint" />
            <mxPoint x="660" y="580" as="targetPoint" />
          </mxGeometry>
        </mxCell>
        <mxCell id="T_iA5VS61h9kqcx7VfOq-41" value="" style="swimlane;startSize=0;fillColor=#6a00ff;strokeColor=#3700CC;fontColor=#ffffff;" vertex="1" parent="1">
          <mxGeometry x="-730" y="80" width="1760" height="510" as="geometry">
            <mxRectangle x="-730" y="80" width="50" height="40" as="alternateBounds" />
          </mxGeometry>
        </mxCell>
        <mxCell id="wAlME1ZznGccQzY6cLMW-5" value="Terraform" style="shape=image;verticalLabelPosition=bottom;labelBackgroundColor=none;verticalAlign=top;aspect=fixed;imageAspect=0;image=data:image/svg+xml,PHN2ZyB4bWxuczpjYz0iaHR0cDovL2NyZWF0aXZlY29tbW9ucy5vcmcvbnMjIiB4bWxuczpkYz0iaHR0cDovL3B1cmwub3JnL2RjL2VsZW1lbnRzLzEuMS8iIHhtbG5zOmlua3NjYXBlPSJodHRwOi8vd3d3Lmlua3NjYXBlLm9yZy9uYW1lc3BhY2VzL2lua3NjYXBlIiB4bWxuczpyZGY9Imh0dHA6Ly93d3cudzMub3JnLzE5OTkvMDIvMjItcmRmLXN5bnRheC1ucyMiIHhtbG5zOnNvZGlwb2RpPSJodHRwOi8vc29kaXBvZGkuc291cmNlZm9yZ2UubmV0L0RURC9zb2RpcG9kaS0wLmR0ZCIgeG1sbnM6c3ZnPSJodHRwOi8vd3d3LnczLm9yZy8yMDAwL3N2ZyIgeG1sbnM9Imh0dHA6Ly93d3cudzMub3JnLzIwMDAvc3ZnIiB4bWxuczp4bGluaz0iaHR0cDovL3d3dy53My5vcmcvMTk5OS94bGluayIgdmVyc2lvbj0iMS4xIiBpZD0ic3ZnNDA4ODAiIGlua3NjYXBlOnZlcnNpb249IjAuOTIuMyAoMjQwNTU0NiwgMjAxOC0wMy0xMSkiIHNvZGlwb2RpOmRvY25hbWU9InRlcnJhZm9ybS5zdmciIHg9IjBweCIgeT0iMHB4IiB2aWV3Qm94PSIwIDAgMzkuNiA0NSIgc3R5bGU9ImVuYWJsZS1iYWNrZ3JvdW5kOm5ldyAwIDAgMzkuNiA0NTsiIHhtbDpzcGFjZT0icHJlc2VydmUiPiYjeGE7PHNvZGlwb2RpOm5hbWVkdmlldyBib3JkZXJjb2xvcj0iIzY2NjY2NiIgYm9yZGVyb3BhY2l0eT0iMSIgZml0LW1hcmdpbi1ib3R0b209IjAiIGZpdC1tYXJnaW4tbGVmdD0iMCIgZml0LW1hcmdpbi1yaWdodD0iMCIgZml0LW1hcmdpbi10b3A9IjAiIGdyaWR0b2xlcmFuY2U9IjEwIiBndWlkZXRvbGVyYW5jZT0iMTAiIGlkPSJuYW1lZHZpZXc0MDg4MiIgaW5rc2NhcGU6Y3VycmVudC1sYXllcj0ic3ZnNDA4ODAiIGlua3NjYXBlOmN4PSIyNi4zOTk5ODYiIGlua3NjYXBlOmN5PSIyOS45OTk5ODUiIGlua3NjYXBlOnBhZ2VvcGFjaXR5PSIwIiBpbmtzY2FwZTpwYWdlc2hhZG93PSIyIiBpbmtzY2FwZTp3aW5kb3ctaGVpZ2h0PSIxMDE3IiBpbmtzY2FwZTp3aW5kb3ctbWF4aW1pemVkPSIxIiBpbmtzY2FwZTp3aW5kb3ctd2lkdGg9IjE5MjAiIGlua3NjYXBlOndpbmRvdy14PSItOCIgaW5rc2NhcGU6d2luZG93LXk9Ii04IiBpbmtzY2FwZTp6b29tPSIxMy45ODM4NzgiIG9iamVjdHRvbGVyYW5jZT0iMTAiIHBhZ2Vjb2xvcj0iI2ZmZmZmZiIgc2hvd2dyaWQ9ImZhbHNlIj4mI3hhOwk8L3NvZGlwb2RpOm5hbWVkdmlldz4mI3hhOzxnIGlkPSJnNDA4NzgiIHRyYW5zZm9ybT0idHJhbnNsYXRlKC0wLjc1LC0wLjc0NzUpIj4mI3hhOwk8dGl0bGUgaWQ9InRpdGxlNDA4NDQiPlBhZ2UtMTwvdGl0bGU+JiN4YTsJPGcgaWQ9Imdyb3VwMTU3MC0xIiB0cmFuc2Zvcm09InRyYW5zbGF0ZSgwLjc1LC0wLjc1KSI+JiN4YTsJCTx0aXRsZSBpZD0idGl0bGU0MDg0NiI+VGVycmFmb3JtPC90aXRsZT4mI3hhOwkJPGcgaWQ9Imdyb3VwMTU3MS0yIj4mI3hhOwkJCTx0aXRsZSBpZD0idGl0bGU0MDg0OCI+TG9nbzwvdGl0bGU+JiN4YTsJCQk8ZyBpZD0ic2hhcGUxNTcyLTMiIHRyYW5zZm9ybT0idHJhbnNsYXRlKDEzLjY1LC0xNS43NjUpIj4mI3hhOwkJCQk8dGl0bGUgaWQ9InRpdGxlNDA4NTAiPnBvbHlnb24zNzA2PC90aXRsZT4mI3hhOwkJCQk8cGF0aCBpZD0icGF0aDQwODUyIiBpbmtzY2FwZTpjb25uZWN0b3ItY3VydmF0dXJlPSIwIiBzdHlsZT0iZmlsbDojNUM0RUU1OyIgZD0iTTEyLjMsNDYuNUwwLDM5LjRWMjUuMTlsMTIuMyw3LjExVjQ2LjV6Ii8+JiN4YTsJCQk8L2c+JiN4YTsJCQk8ZyBpZD0ic2hhcGUxNTczLTUiIHRyYW5zZm9ybT0idHJhbnNsYXRlKDI3LjMsLTE1Ljc2NSkiPiYjeGE7CQkJCTx0aXRsZSBpZD0idGl0bGU0MDg1NSI+cG9seWdvbjM3MDg8L3RpdGxlPiYjeGE7CQkJCTxwYXRoIGlkPSJwYXRoNDA4NTciIGlua3NjYXBlOmNvbm5lY3Rvci1jdXJ2YXR1cmU9IjAiIHN0eWxlPSJmaWxsOiM0MDQwQjI7IiBkPSJNMTIuMywzOS40MVYyNS4xOUwwLDMyLjN2MTQuMkwxMi4zLDM5LjQxeiIvPiYjeGE7CQkJPC9nPiYjeGE7CQkJPGcgaWQ9InNoYXBlMTU3NC03IiB0cmFuc2Zvcm09InRyYW5zbGF0ZSgwLC0yMy42OTI1KSI+JiN4YTsJCQkJPHRpdGxlIGlkPSJ0aXRsZTQwODYwIj5wb2x5Z29uMzcxMDwvdGl0bGU+JiN4YTsJCQkJPHBhdGggaWQ9InBhdGg0MDg2MiIgaW5rc2NhcGU6Y29ubmVjdG9yLWN1cnZhdHVyZT0iMCIgc3R5bGU9ImZpbGw6IzVDNEVFNTsiIGQ9Ik0xMi4zLDQ2LjVWMzIuM0wwLDI1LjE5VjM5LjRMMTIuMyw0Ni41eiIvPiYjeGE7CQkJPC9nPiYjeGE7CQkJPGcgaWQ9InNoYXBlMTU3NS05IiB0cmFuc2Zvcm09InRyYW5zbGF0ZSgxMy42NSkiPiYjeGE7CQkJCTx0aXRsZSBpZD0idGl0bGU0MDg2NSI+cG9seWdvbjM3MTI8L3RpdGxlPiYjeGE7CQkJCTxwYXRoIGlkPSJwYXRoNDA4NjciIGlua3NjYXBlOmNvbm5lY3Rvci1jdXJ2YXR1cmU9IjAiIHN0eWxlPSJmaWxsOiM1QzRFRTU7IiBkPSJNMTIuMywzMi4zOVYzMi4zTDAsMjUuMTlWMzkuNGwxMi4zLDcuMVYzMi4zOXogICAgICAiLz4mI3hhOwkJCTwvZz4mI3hhOwkJCTxnIGlkPSJzaGFwZTE1NzYtMTEiIHRyYW5zZm9ybT0idHJhbnNsYXRlKDM0LjQwMjUsLTkuMzIyNSkiPiYjeGE7CQkJCTx0aXRsZSBpZD0idGl0bGU0MDg3MCI+cGF0aDM3MTQ8L3RpdGxlPiYjeGE7CQkJPC9nPiYjeGE7CQkJPGcgaWQ9InNoYXBlMTU3Ny0xMiIgdHJhbnNmb3JtPSJ0cmFuc2xhdGUoMTMuNjUsLTIxLjMwNzUpIj4mI3hhOwkJCQk8dGl0bGUgaWQ9InRpdGxlNDA4NzMiPnBhdGgzNzE2PC90aXRsZT4mI3hhOwkJCTwvZz4mI3hhOwkJPC9nPiYjeGE7CTwvZz4mI3hhOzwvZz4mI3hhOzwvc3ZnPg==;" parent="T_iA5VS61h9kqcx7VfOq-41" vertex="1">
          <mxGeometry x="1660" y="15.5" width="40" height="45" as="geometry" />
        </mxCell>
      </root>
    </mxGraphModel>
  </diagram>
</mxfile>
